<svg width="25" height="22" viewBox="0 0 25 22" fill="none" xmlns="http://www.w3.org/2000/svg">
<path d="M12.9518 18.068C12.2249 18.0568 11.5241 17.7955 10.9673 17.328L7.30094 14.0989C6.72402 13.5599 5.8418 13.5172 5.2155 13.998L0.00193582 17.8325V20.3215C-0.0355343 20.9893 0.475463 21.5609 1.14316 21.5984C1.17754 21.6003 1.21205 21.6007 1.2465 21.5997H19.7127C20.4527 21.5997 21.1927 21.0616 21.1927 20.3215V13.7962L14.5663 17.6307C14.0792 17.9235 13.5202 18.075 12.9518 18.068Z" fill="#272727"/>
<path d="M12.6827 11.5426C13.5001 11.5426 14.1627 10.88 14.1627 10.0626C14.1627 9.2452 13.5001 8.58258 12.6827 8.58258C11.8653 8.58258 11.2027 9.2452 11.2027 10.0626C11.2027 10.88 11.8653 11.5426 12.6827 11.5426Z" fill="#272727"/>
<path d="M24.6909 2.62902C24.4761 2.33647 24.1445 2.15221 23.7827 2.12446L5.45099 0.00540431C5.09361 -0.0245331 4.73694 0.0705585 4.44194 0.27452C4.18068 0.5014 4.00305 0.809338 3.93738 1.14908L3.63466 3.7727H19.7127C21.2456 3.80746 22.4851 5.03213 22.5382 6.56448V18.438C22.5382 18.3707 22.8409 18.3034 22.9755 18.1689C23.254 17.9502 23.4155 17.6148 23.4128 17.2607L24.9936 3.60447C25.0285 3.25172 24.9194 2.89987 24.6909 2.62902Z" fill="#272727"/>
<path d="M19.7127 5.11807H1.24648C0.506481 5.11807 0.00192261 5.8244 0.00192261 6.56441V16.1507L4.44187 12.9216C5.56894 12.0856 7.12813 12.1558 8.17549 13.0898L11.8754 16.3189C12.4334 16.7925 13.2303 16.8601 13.8599 16.487L21.1926 12.2152V6.56441C21.1418 5.77476 20.5033 5.15084 19.7127 5.11807ZM12.6827 12.888C11.1223 12.888 9.85727 11.623 9.85727 10.0625C9.85727 8.5021 11.1222 7.23706 12.6827 7.23706C14.2431 7.23706 15.5082 8.50203 15.5082 10.0625C15.5082 11.623 14.2432 12.888 12.6827 12.888Z" fill="#272727"/>
</svg>
