<svg width="25" height="20" viewBox="0 0 25 20" fill="none" xmlns="http://www.w3.org/2000/svg">
<path d="M24.8068 8.95455C24.5663 9.33959 24.1534 9.55145 23.7303 9.55145C23.502 9.55145 23.2679 9.48929 23.0586 9.35862L12.5003 2.76485L1.94138 9.35925C1.34639 9.73096 0.563634 9.54955 0.193191 8.95455C-0.178522 8.36019 0.00225993 7.57744 0.597253 7.20636L11.8279 0.192675C12.2383 -0.064225 12.761 -0.064225 13.172 0.192675L24.404 7.207C24.9977 7.57871 25.1785 8.36019 24.8068 8.95455ZM20.7217 9.63835L13.1733 4.92344C12.7623 4.66654 12.2396 4.66654 11.8292 4.92344L4.27949 9.63835C3.90841 9.86988 3.68386 10.2765 3.68386 10.7142V18.5696C3.68386 19.2699 4.25221 19.8382 4.9525 19.8382H9.11809C9.81838 19.8382 10.3867 19.2699 10.3867 18.5696V14.9933C10.3867 13.8274 11.3357 12.8797 12.5016 12.8797C13.6668 12.8797 14.6158 13.8287 14.6158 14.9933V18.569C14.6158 19.2692 15.1841 19.8376 15.8844 19.8376H20.05C20.7503 19.8376 21.3186 19.2692 21.3186 18.569V10.7142C21.318 10.2758 21.0928 9.86924 20.7217 9.63835Z" fill="#272727"/>
</svg>
