<svg width="25" height="23" viewBox="0 0 25 23" fill="none" xmlns="http://www.w3.org/2000/svg">
<path d="M11.9456 14.2084C12.1041 14.3478 12.302 14.4177 12.5001 14.4177C12.6981 14.4177 12.8961 14.3478 13.0545 14.2084C13.2553 14.0315 17.9696 9.8295 17.9696 5.47157C17.9696 2.45456 15.5161 0 12.5002 0C9.48415 0 7.03052 2.45456 7.03052 5.47157C7.03035 9.8295 11.7448 14.0315 11.9456 14.2084ZM12.5001 4.04194C13.2831 4.04194 13.918 4.68184 13.918 5.47157C13.918 6.26122 13.2831 6.90121 12.5001 6.90121C11.7168 6.90121 11.082 6.26114 11.082 5.47157C11.082 4.68184 11.7168 4.04194 12.5001 4.04194Z" fill="#272727"/>
<path d="M23.0099 14.206L22.3763 11.9857C22.2734 11.6253 21.9442 11.3769 21.5697 11.3769H17.0478C16.8844 11.6199 16.7119 11.8639 16.5295 12.1091C15.262 13.812 13.9736 14.9639 13.8307 15.0898C13.4629 15.4137 12.9904 15.5921 12.5001 15.5921C12.0101 15.5921 11.5376 15.4139 11.1693 15.0896C11.0266 14.9639 9.73795 13.8119 8.47061 12.1091C8.2882 11.8639 8.11572 11.6198 7.95226 11.3769H3.43035C3.05577 11.3769 2.72656 11.6253 2.6237 11.9857L1.86856 14.6318L18.7482 17.7236L23.0099 14.206Z" fill="#272727"/>
<path d="M24.9678 21.0678L23.3491 15.3947L15.3178 22.137H24.1612C24.4245 22.137 24.6723 22.0135 24.8309 21.8034C24.9894 21.5932 25.0399 21.3208 24.9678 21.0678Z" fill="#272727"/>
<path d="M4.10712 16.2358L1.54482 15.7665L0.0321859 21.0678C-0.0399524 21.3208 0.010637 21.5932 0.169224 21.8033C0.327726 22.0134 0.575623 22.1369 0.838839 22.1369H4.10712V16.2358Z" fill="#272727"/>
<path d="M5.28162 16.4511V22.1369H13.491L17.5806 18.7038L5.28162 16.4511Z" fill="#272727"/>
</svg>
