<svg width="25" height="25" viewBox="0 0 25 25" fill="none" xmlns="http://www.w3.org/2000/svg">
<path d="M12.8266 8.60771C12.7188 8.59834 12.6103 8.59375 12.5 8.59375C10.3461 8.59375 8.59375 10.3461 8.59375 12.5C8.59375 14.6539 10.3461 16.4062 12.5 16.4062C12.6103 16.4062 12.7188 16.4017 12.8228 16.3926C14.8339 16.2273 16.4062 14.5176 16.4062 12.5C16.4062 10.4824 14.8339 8.7727 12.8266 8.60771V8.60771Z" fill="#272727"/>
<path d="M24.1989 10.5667C23.6823 10.0501 22.9958 9.76562 22.2656 9.76562H21.4698C21.2937 9.18638 21.0616 8.62642 20.7758 8.09121L21.339 7.52803C22.4048 6.46221 22.4049 4.72754 21.3391 3.66099C20.8228 3.14468 20.136 2.86035 19.4053 2.86035C18.6749 2.86035 17.9883 3.14468 17.472 3.66094L16.9088 4.22412C16.3736 3.93838 15.8136 3.7063 15.2344 3.53018V2.73438C15.2344 1.43931 14.3141 0.312305 13.0444 0.0543457C12.8648 0.0183105 12.6817 0 12.5 0C11.7699 0 11.0833 0.284521 10.5667 0.801123C10.0501 1.31772 9.76562 2.0043 9.76562 2.73438V3.53018C9.18638 3.70625 8.62642 3.93833 8.09121 4.22412L7.52803 3.66094C6.46221 2.59512 4.72754 2.59502 3.66094 3.66094C3.14468 4.17725 2.86035 4.86401 2.86035 5.59473C2.86035 6.3251 3.14468 7.01172 3.66094 7.52803L4.22412 8.09121C3.93833 8.62642 3.7063 9.18643 3.53018 9.76562H2.73438C1.22661 9.76562 0 10.9923 0 12.5C0 13.2301 0.284473 13.9166 0.801074 14.4333C1.31768 14.9499 2.00425 15.2344 2.73438 15.2344H3.53022C3.7063 15.8136 3.93838 16.3736 4.22417 16.9088L3.66099 17.472C2.59517 18.5378 2.59507 20.2725 3.66094 21.339C4.1772 21.8553 4.86401 22.1396 5.59473 22.1396C6.32515 22.1396 7.01172 21.8553 7.52803 21.339L8.09121 20.7758C8.62642 21.0616 9.18638 21.2937 9.76562 21.4698V22.2656C9.76562 23.7733 10.9922 25 12.5 25C12.6817 25 12.8648 24.9817 13.0444 24.9457C13.045 24.9456 13.0455 24.9454 13.0461 24.9453C13.5721 24.8385 14.0518 24.5804 14.4333 24.1989C14.9499 23.6823 15.2344 22.9957 15.2344 22.2656V21.4698C15.8136 21.2937 16.3736 21.0617 16.9088 20.7759L17.472 21.3391C18.0049 21.872 18.7049 22.1385 19.4053 22.1384C20.1054 22.1384 20.8059 21.8719 21.3391 21.339C21.8553 20.8227 22.1396 20.1359 22.1396 19.4052C22.1396 18.6749 21.8553 17.9882 21.3391 17.4719L20.7759 16.9087C21.0617 16.3735 21.2937 15.8135 21.4698 15.2343H22.2656C23.7734 15.2343 25 14.0077 25 12.5C25 11.7699 24.7155 11.0833 24.1989 10.5667V10.5667ZM16.5148 16.2135C15.5826 17.2209 14.3182 17.8375 12.9546 17.9496C12.8095 17.9622 12.6553 17.9688 12.5 17.9688C9.48452 17.9688 7.03125 15.5155 7.03125 12.5C7.03125 9.48457 9.48452 7.0313 12.5 7.0313C12.6553 7.0313 12.8095 7.03789 12.9584 7.05083C14.3182 7.1626 15.5826 7.7791 16.5148 8.78657C17.4524 9.79971 17.9688 11.1186 17.9688 12.5C17.9688 13.8814 17.4524 15.2003 16.5148 16.2135V16.2135Z" fill="#272727"/>
</svg>
